<svg width="41" height="41" viewBox="0 0 41 41" fill="none" xmlns="http://www.w3.org/2000/svg">
<g filter="url(#filter0_d)">
<path d="M16.2787 4.56271H14.1395V5.6323H16.2787V4.56271Z" fill="black"/>
<path d="M16.2787 6.70187H14.1395V7.77146H16.2787V6.70187Z" fill="black"/>
<path d="M16.2787 8.84103H14.1395V9.91062H16.2787V8.84103Z" fill="black"/>
<path d="M23.7658 5.0975H22.6962C22.6959 5.38107 22.5831 5.65293 22.3826 5.85344C22.1821 6.05396 21.9102 6.16675 21.6266 6.16709V7.23667C22.1938 7.23603 22.7375 7.01045 23.1386 6.60942C23.5396 6.20839 23.7652 5.66465 23.7658 5.0975Z" fill="black"/>
<path d="M26.4398 7.77146V6.70188C26.1563 6.70154 25.8844 6.58875 25.6839 6.38823C25.4834 6.18772 25.3706 5.91586 25.3702 5.63229H24.3007C24.3013 6.19944 24.5269 6.74318 24.9279 7.14421C25.3289 7.54524 25.8727 7.77082 26.4398 7.77146Z" fill="black"/>
<path d="M32.0545 31.0505C31.1517 31.2146 30.2308 31.2557 29.3169 31.1728L20.0182 30.3274C19.8687 30.3138 19.7303 30.2431 19.6316 30.13C19.5329 30.0169 19.4816 29.8701 19.4884 29.7202C19.4952 29.5703 19.5595 29.4287 19.6679 29.325C19.7764 29.2212 19.9207 29.1633 20.0707 29.1632H27.2419C27.5965 29.1626 27.9365 29.0214 28.1871 28.7705C28.4378 28.5196 28.5787 28.1796 28.5789 27.8249V27.8124C28.5783 27.5314 28.4871 27.2581 28.3189 27.033L27.0944 25.401C27.0168 25.2972 26.9748 25.1711 26.9745 25.0415V24.9497C26.9745 24.8311 27.0097 24.7152 27.0756 24.6166C27.1414 24.518 27.2351 24.4411 27.3447 24.3957C27.4542 24.3503 27.5748 24.3385 27.6911 24.3616C27.8075 24.3847 27.9143 24.4418 27.9982 24.5257L30.3399 26.8674C30.3896 26.917 30.4485 26.9564 30.5134 26.9833C30.5783 27.0102 30.6478 27.024 30.7181 27.024H36.6008V25.9544H30.9395L28.7546 23.7693C28.6996 23.7145 28.6409 23.6634 28.5789 23.6166V11.515C28.5789 11.3732 28.5225 11.2372 28.4223 11.1369C28.322 11.0366 28.1859 10.9802 28.0441 10.9802H27.5093V9.37586H28.3115C28.8079 9.37586 29.284 9.17865 29.635 8.82763C29.9861 8.4766 30.1833 8.00051 30.1833 7.50409C30.1833 7.00766 29.9861 6.53157 29.635 6.18054C29.284 5.82952 28.8079 5.63231 28.3115 5.63231H28.2562C28.524 5.31148 28.6616 4.90191 28.6421 4.48449C28.6225 4.06708 28.4471 3.67218 28.1505 3.37783C27.8539 3.08347 27.4576 2.91105 27.0401 2.89464C26.6225 2.87823 26.214 3.01902 25.8952 3.28919C25.8446 2.75947 25.5984 2.26763 25.2047 1.9097C24.8109 1.55176 24.2979 1.35343 23.7658 1.35343C23.2336 1.35343 22.7206 1.55176 22.3269 1.9097C21.9331 2.26763 21.6869 2.75947 21.6363 3.28919C21.3175 3.01902 20.909 2.87823 20.4914 2.89464C20.0739 2.91105 19.6777 3.08347 19.3811 3.37783C19.0845 3.67218 18.909 4.06708 18.8895 4.48449C18.8699 4.90191 19.0076 5.31148 19.2753 5.63231H19.22C18.9425 5.63206 18.6684 5.69389 18.4178 5.81327V3.49315C18.4178 2.64213 18.0798 1.82597 17.478 1.22422C16.8763 0.622457 16.0601 0.284393 15.2091 0.284393C14.3581 0.284393 13.5419 0.622457 12.9402 1.22422C12.3384 1.82597 12.0003 2.64213 12.0003 3.49315V10.9802H11.4655C11.3237 10.9802 11.1877 11.0366 11.0874 11.1369C10.9871 11.2372 10.9307 11.3732 10.9307 11.515V13.8666L8.05898 16.3282H4.51324V17.3977H8.25679C8.38444 17.3977 8.50788 17.3521 8.6048 17.269L11.7045 14.6121C12.0231 14.3392 12.4289 14.1891 12.8484 14.189C12.8923 14.189 12.9351 14.202 12.9715 14.2263C13.0079 14.2507 13.0363 14.2853 13.0531 14.3257C13.0698 14.3662 13.0742 14.4107 13.0656 14.4537C13.0571 14.4967 13.036 14.5361 13.005 14.5671L11.0874 16.4848C11.0126 16.5596 10.9616 16.6549 10.941 16.7586C10.9204 16.8624 10.931 16.9699 10.9714 17.0676C11.0119 17.1653 11.0805 17.2489 11.1684 17.3076C11.2564 17.3664 11.3598 17.3977 11.4655 17.3977H17.0809C17.1518 17.3977 17.2198 17.4259 17.2699 17.4761C17.3201 17.5262 17.3483 17.5942 17.3483 17.6651C17.3483 17.7361 17.3201 17.8041 17.2699 17.8542C17.2198 17.9044 17.1518 17.9325 17.0809 17.9325H13.0699C12.9281 17.9325 12.7921 17.9889 12.6918 18.0892C12.5915 18.1895 12.5351 18.3255 12.5351 18.4673C12.5351 18.6092 12.5915 18.7452 12.6918 18.8455C12.7921 18.9458 12.9281 19.0021 13.0699 19.0021H18.6852C18.7562 19.0021 18.8242 19.0303 18.8743 19.0804C18.9245 19.1306 18.9526 19.1986 18.9526 19.2695C18.9526 19.3404 18.9245 19.4084 18.8743 19.4586C18.8242 19.5087 18.7562 19.5369 18.6852 19.5369H13.0699C12.9281 19.5369 12.7921 19.5933 12.6918 19.6935C12.5915 19.7938 12.5351 19.9299 12.5351 20.0717C12.5351 20.2135 12.5915 20.3496 12.6918 20.4499C12.7921 20.5501 12.9281 20.6065 13.0699 20.6065H17.6157C17.6866 20.6065 17.7546 20.6347 17.8047 20.6848C17.8549 20.735 17.883 20.803 17.883 20.8739C17.883 20.9448 17.8549 21.0128 17.8047 21.063C17.7546 21.1131 17.6866 21.1413 17.6157 21.1413H13.0699C12.9281 21.1413 12.7921 21.1976 12.6918 21.2979C12.5915 21.3982 12.5351 21.5342 12.5351 21.6761C12.5351 21.8179 12.5915 21.9539 12.6918 22.0542C12.7921 22.1545 12.9281 22.2109 13.0699 22.2109H15.7105C15.7187 22.2113 15.7264 22.2147 15.7323 22.2205C15.7381 22.2263 15.7417 22.234 15.7422 22.2422C15.7427 22.2504 15.7401 22.2585 15.735 22.265C15.7299 22.2714 15.7226 22.2758 15.7145 22.2772L12.0422 22.7362L8.40386 21.6967C8.35603 21.683 8.30653 21.6761 8.25679 21.6761H4.51324V22.7457H8.18192L10.9307 23.5311V28.6284H10.932C10.9315 28.6986 10.945 28.7683 10.9716 28.8333C10.9982 28.8984 11.0375 28.9575 11.0871 29.0072C11.1367 29.0569 11.1957 29.0963 11.2607 29.1231C11.3256 29.1499 11.3953 29.1635 11.4655 29.1632H18.5248C18.4348 29.4014 18.4011 29.6573 18.4263 29.9107C18.4515 30.1642 18.535 30.4084 18.6702 30.6242C18.8055 30.8401 18.9887 31.0217 19.2058 31.155C19.4228 31.2883 19.6677 31.3696 19.9214 31.3926L29.22 32.2382C29.5584 32.2691 29.8973 32.2845 30.2367 32.2844C30.9105 32.2844 31.5829 32.2238 32.2458 32.1033L36.6964 31.294L36.5051 30.2417L32.0545 31.0505ZM17.3483 8.84107C17.3484 8.69928 17.4048 8.56335 17.5051 8.46309C17.6053 8.36283 17.7413 8.30643 17.883 8.30627H18.9526C19.5198 8.30691 20.0635 8.53249 20.4645 8.93353C20.8656 9.33456 21.0912 9.87829 21.0918 10.4454C21.0916 10.5872 21.0352 10.7232 20.935 10.8234C20.8347 10.9237 20.6988 10.9801 20.557 10.9802H19.4874C18.9203 10.9796 18.3765 10.754 17.9755 10.353C17.5745 9.95195 17.3489 9.40821 17.3483 8.84107ZM19.22 6.7019H20.557C20.6628 6.7019 20.7662 6.67054 20.8541 6.61178C20.9421 6.55301 21.0106 6.46949 21.0511 6.37176C21.0916 6.27404 21.1022 6.16651 21.0815 6.06277C21.0609 5.95903 21.01 5.86373 20.9352 5.78894L20.133 4.98675C20.0773 4.93107 20.0331 4.86496 20.003 4.79221C19.9729 4.71946 19.9573 4.64148 19.9573 4.56273C19.9573 4.48398 19.9729 4.406 20.003 4.33325C20.0331 4.2605 20.0773 4.19439 20.133 4.13871C20.1887 4.08302 20.2548 4.03885 20.3275 4.00872C20.4003 3.97858 20.4783 3.96307 20.557 3.96307C20.6358 3.96307 20.7137 3.97858 20.7865 4.00872C20.8592 4.03885 20.9253 4.08302 20.981 4.13871L21.7832 4.94089C21.858 5.01569 21.9533 5.06663 22.057 5.08726C22.1608 5.1079 22.2683 5.09731 22.366 5.05683C22.4638 5.01635 22.5473 4.9478 22.6061 4.85985C22.6648 4.7719 22.6962 4.6685 22.6962 4.56273V3.49315C22.6962 3.20947 22.8089 2.93742 23.0094 2.73684C23.21 2.53625 23.4821 2.42356 23.7658 2.42356C24.0494 2.42356 24.3215 2.53625 24.5221 2.73684C24.7227 2.93742 24.8353 3.20947 24.8353 3.49315V4.56273C24.8353 4.6685 24.8667 4.7719 24.9255 4.85985C24.9842 4.9478 25.0678 5.01635 25.1655 5.05683C25.2632 5.09731 25.3707 5.1079 25.4745 5.08726C25.5782 5.06663 25.6735 5.01569 25.7483 4.94089L26.5505 4.13871C26.6062 4.08302 26.6723 4.03885 26.745 4.00872C26.8178 3.97858 26.8958 3.96307 26.9745 3.96307C27.0533 3.96307 27.1312 3.97858 27.204 4.00872C27.2767 4.03885 27.3428 4.08302 27.3985 4.13871C27.4542 4.19439 27.4984 4.2605 27.5285 4.33325C27.5587 4.406 27.5742 4.48398 27.5742 4.56273C27.5742 4.64148 27.5587 4.71946 27.5285 4.79221C27.4984 4.86496 27.4542 4.93107 27.3985 4.98675L26.5963 5.78894C26.5215 5.86373 26.4706 5.95903 26.45 6.06277C26.4293 6.16651 26.4399 6.27404 26.4804 6.37176C26.5209 6.46949 26.5894 6.55301 26.6774 6.61178C26.7653 6.67054 26.8687 6.7019 26.9745 6.7019H28.3115C28.5242 6.7019 28.7283 6.78641 28.8787 6.93685C29.0292 7.08729 29.1137 7.29133 29.1137 7.50409C29.1137 7.71684 29.0292 7.92088 28.8787 8.07132C28.7283 8.22176 28.5242 8.30627 28.3115 8.30627H26.9745C26.8327 8.30627 26.6966 8.36262 26.5964 8.46291C26.4961 8.5632 26.4397 8.69923 26.4397 8.84107V9.12591C25.8157 8.56547 24.9967 8.2723 24.1588 8.30942C23.3208 8.34655 22.531 8.71102 21.959 9.32445C21.7298 8.71191 21.3192 8.18386 20.782 7.81081C20.2448 7.43776 19.6066 7.23747 18.9526 7.23669H18.4646C18.52 7.08049 18.6223 6.94524 18.7575 6.84949C18.8928 6.75374 19.0543 6.70218 19.22 6.7019ZM26.372 10.9802H22.2291C22.3475 10.5209 22.6153 10.1139 22.9903 9.82331C23.3652 9.53273 23.8262 9.37505 24.3006 9.37505C24.7749 9.37505 25.2359 9.53273 25.6108 9.82331C25.9858 10.1139 26.2536 10.5209 26.372 10.9802ZM13.0699 3.49315C13.0699 2.9258 13.2953 2.3817 13.6965 1.98053C14.0976 1.57935 14.6417 1.35398 15.2091 1.35398C15.7764 1.35398 16.3205 1.57935 16.7217 1.98053C17.1229 2.3817 17.3483 2.9258 17.3483 3.49315V7.32867C17.0357 7.43958 16.7651 7.64448 16.5736 7.91525C16.3821 8.18603 16.2791 8.50942 16.2787 8.84107C16.2781 9.63092 16.5701 10.393 17.0983 10.9802H13.0699V3.49315ZM14.1395 12.0498H15.2091V16.3282H14.1395V12.0498ZM12.8484 13.1194C12.5607 13.1195 12.2747 13.1636 12.0003 13.25V12.0498H13.0699V13.1398C12.9968 13.1267 12.9227 13.1198 12.8484 13.1194ZM13.0699 16.0149V16.3282H12.7566L13.0699 16.0149ZM14.1395 23.552L15.2091 23.4183V27.3372L14.1395 26.2676V23.552ZM12.0666 23.8111L13.0699 23.6857V26.2677L12.0003 27.3373V23.8152C12.0225 23.8152 12.0447 23.8138 12.0666 23.8111ZM12.7566 28.0936L13.6047 27.2455L14.4528 28.0936H12.7566ZM16.2787 23.1879C16.4415 23.09 16.5763 22.9516 16.67 22.7863C16.7637 22.6209 16.8131 22.4342 16.8135 22.2442C16.8135 22.233 16.8135 22.2219 16.8129 22.2107H17.6157C17.8157 22.2106 18.0131 22.1657 18.1935 22.0792C18.3738 21.9927 18.5325 21.8668 18.6578 21.7109C18.7831 21.5549 18.8718 21.3729 18.9174 21.1781C18.963 20.9834 18.9643 20.7809 18.9213 20.5855C19.2502 20.5265 19.545 20.3466 19.7478 20.0811C19.9506 19.8156 20.0467 19.4838 20.0171 19.151C19.9875 18.8182 19.8343 18.5086 19.5878 18.2831C19.3413 18.0576 19.0193 17.9325 18.6852 17.9325H18.3911C18.4306 17.7383 18.4264 17.5377 18.3789 17.3452C18.3313 17.1528 18.2416 16.9733 18.1162 16.8198C17.9909 16.6663 17.8329 16.5425 17.6539 16.4575C17.4748 16.3725 17.2791 16.3283 17.0809 16.3282H16.2787V12.0498H27.5093V23.2821C27.0784 23.2994 26.6708 23.4825 26.3718 23.7933C26.0728 24.1041 25.9055 24.5185 25.9049 24.9497V25.0415C25.9057 25.4026 26.0229 25.7538 26.2392 26.0431L27.4636 27.6748C27.4933 27.7146 27.5094 27.7628 27.5095 27.8124V27.8249C27.5096 27.896 27.4815 27.9642 27.4313 28.0146C27.3811 28.065 27.313 28.0934 27.2419 28.0936H16.2787V23.1879Z" fill="black"/>
</g>
<defs>
<filter id="filter0_d" x="0.513245" y="0.284393" width="40.1832" height="40" filterUnits="userSpaceOnUse" color-interpolation-filters="sRGB">
<feFlood flood-opacity="0" result="BackgroundImageFix"/>
<feColorMatrix in="SourceAlpha" type="matrix" values="0 0 0 0 0 0 0 0 0 0 0 0 0 0 0 0 0 0 127 0"/>
<feOffset dy="4"/>
<feGaussianBlur stdDeviation="2"/>
<feColorMatrix type="matrix" values="0 0 0 0 0 0 0 0 0 0 0 0 0 0 0 0 0 0 0.25 0"/>
<feBlend mode="normal" in2="BackgroundImageFix" result="effect1_dropShadow"/>
<feBlend mode="normal" in="SourceGraphic" in2="effect1_dropShadow" result="shape"/>
</filter>
</defs>
</svg>
